Coordinates
version=1
nRows=16
nColumns=22
inDegrees=yes

Units are S.I. units (second, meters, Newtons, ...)
If the header above contains a line with 'inDegrees', this indicates whether rotational values are in degrees (yes) or radians (no).

endheader
time	pelvis_tilt	pelvis_list	pelvis_rotation	pelvis_tx	pelvis_ty	pelvis_tz	hip_flexion_r	hip_adduction_r	hip_rotation_r	knee_angle_r	ankle_angle_r	subtalar_angle_r	hip_flexion_l	hip_adduction_l	hip_rotation_l	knee_angle_l	ankle_angle_l	subtalar_angle_l	lumbar_extension	lumbar_bending	lumbar_rotation
      3.42000000	    -10.32728643	      1.76322991	     -2.29789708	      0.33832196	      0.97696712	      0.34078166	     33.68125068	     -8.00009875	     -3.90489959	    -46.19283677	     16.21352039	     -0.14525567	     18.26314390	      6.32082508	     -2.45543687	    -19.73471616	     18.54882615	     -5.12731071	     -0.69317989	     -0.78419576	      2.25508875
      3.43000000	    -10.33194377	      1.74438968	     -2.41244198	      0.34205878	      0.97681452	      0.34091955	     34.20452727	     -7.86393902	     -4.16338922	    -44.78733240	     16.29741544	     -0.05440505	     18.00780883	      6.28860183	     -2.50851688	    -19.70605785	     18.76757136	     -5.13769671	     -0.77066489	     -0.81636536	      2.32264276
      3.44000000	    -10.33748674	      1.71483993	     -2.52647337	      0.34580401	      0.97665944	      0.34109617	     34.71064118	     -7.70885069	     -4.44742211	    -43.38593434	     16.30350721	      0.07063863	     17.75685110	      6.24047696	     -2.58670736	    -19.68476141	     18.99179645	     -5.15067863	     -0.84360256	     -0.83003426	      2.38500974
      3.45000000	    -10.33458675	      1.68238638	     -2.62934557	      0.34955941	      0.97651173	      0.34131907	     35.19167612	     -7.54842544	     -4.76297103	    -42.00182351	     16.24132593	      0.25618719	     17.50722630	      6.18402917	     -2.69509687	    -19.68453458	     19.21804929	     -5.16225722	     -0.92472097	     -0.84279079	      2.41822413
      3.46000000	    -10.35251742	      1.67549969	     -2.73810510	      0.35334015	      0.97632789	      0.34159925	     35.68539784	     -7.38644060	     -5.04554962	    -40.64031378	     16.13242401	      0.40154504	     17.25658624	      6.15885637	     -2.74972449	    -19.64195975	     19.41495758	     -5.16647780	     -0.97199310	     -0.88699975	      2.48456794
      3.47000000	    -10.35643124	      1.64492517	     -2.82360013	      0.35714415	      0.97615440	      0.34190505	     36.13685565	     -7.20622890	     -5.37382147	    -39.29740430	     15.96692929	      0.62264384	     17.00810803	      6.10204537	     -2.86222895	    -19.63592839	     19.64077342	     -5.16574257	     -1.03501967	     -0.90150822	      2.49875337
      3.48000000	    -10.37843775	      1.64659765	     -2.91221126	      0.36097201	      0.97594368	      0.34225115	     36.60072671	     -7.03198469	     -5.65428914	    -37.98713201	     15.71414904	      0.77928201	     16.75038707	      6.08665120	     -2.91273064	    -19.57724552	     19.83231727	     -5.16186762	     -1.06839460	     -0.95544402	      2.54732474
      3.49000000	    -10.39598454	      1.63483909	     -2.98435401	      0.36482710	      0.97572075	      0.34262026	     37.03314285	     -6.84000925	     -5.94081081	    -36.69731242	     15.39781779	      0.95497464	     16.49091760	      6.05559021	     -2.98128111	    -19.52992386	     20.04012715	     -5.15560857	     -1.10499396	     -0.99208350	      2.57060013
      3.50000000	    -10.40079815	      1.60208455	     -3.03668454	      0.36871880	      0.97549764	      0.34302174	     37.41821980	     -6.62396650	     -6.23009055	    -35.42296394	     15.04914659	      1.18695680	     16.22218671	      5.99934761	     -3.07521026	    -19.49876685	     20.26524162	     -5.13845888	     -1.15546449	     -1.00516309	      2.55878715
      3.51000000	    -10.40924347	      1.59172543	     -3.08346836	      0.37264782	      0.97524479	      0.34343597	     37.79136973	     -6.41600546	     -6.47371417	    -34.17988890	     14.63219756	      1.42418594	     15.93634628	      5.97374387	     -3.12594031	    -19.43119224	     20.47725218	     -5.11494860	     -1.19441843	     -1.04264952	      2.56355634
      3.52000000	    -10.42296180	      1.59147084	     -3.11821518	      0.37661104	      0.97495229	      0.34386962	     38.14840070	     -6.20884193	     -6.68030771	    -32.96353208	     14.15884708	      1.64987256	     15.65292056	      5.95829553	     -3.17599375	    -19.36137247	     20.67997114	     -5.09874817	     -1.22224140	     -1.09091728	      2.55742966
      3.53000000	    -10.44470617	      1.61904602	     -3.14191032	      0.38061082	      0.97460825	      0.34429280	     38.49722272	     -6.02133664	     -6.83721133	    -31.78139696	     13.65158926	      1.85598349	     15.37054015	      5.97973837	     -3.18428833	    -19.27975520	     20.87452297	     -5.08621033	     -1.23358058	     -1.16683615	      2.55842113
      3.54000000	    -10.43096529	      1.59545768	     -3.14797838	      0.38470427	      0.97430387	      0.34474701	     38.75012126	     -5.78807637	     -6.99560725	    -30.59526100	     13.21425497	      2.28784723	     15.05812233	      5.94001835	     -3.23801024	    -19.22968912	     21.12039811	     -5.04983644	     -1.28190852	     -1.18251989	      2.51716843
      3.55000000	    -10.44880940	      1.60245111	     -3.14658932	      0.38883150	      0.97390879	      0.34520291	     39.02502281	     -5.57909840	     -7.11767840	    -29.45259700	     12.73522527	      2.61748896	     14.78382145	      5.93071476	     -3.29734749	    -19.18697968	     21.31995694	     -5.03891723	     -1.28218919	     -1.22696557	      2.47904859
      3.56000000	    -10.44733268	      1.62297560	     -3.12656332	      0.39302994	      0.97350902	      0.34563976	     39.24752151	     -5.38707557	     -7.18718813	    -28.33741935	     12.36569129	      3.17035583	     14.48019533	      5.94687920	     -3.29521440	    -19.13646025	     21.55012585	     -5.00322935	     -1.29667841	     -1.28342731	      2.43041368
      3.57000000	    -10.47301954	      1.62757140	     -3.09426215	      0.39727115	      0.97304005	      0.34610910	     39.46184552	     -5.17629388	     -7.23456066	    -27.24150373	     11.99682989	      3.57980067	     14.22576450	      5.93600875	     -3.33425029	    -19.12908557	     21.77054597	     -4.99324004	     -1.27416769	     -1.31839986	      2.36651105
